<?xml version="1.0" standalone="yes"?>
<svg xmlns="http://www.w3.org/2000/svg" width="500" height="500">
    <path style="fill:#c42929; stroke:none;"
        d="M145 87C147.629 91.2636 150.655 95.1864 152.25 100C155.367 109.41 155 119.237 155 129L155 167L155 295L155 336C155 345.01 155.599 354.162 153.497 363C151.882 369.79 147.744 374.804 145 381L309 381C324.74 381 350.731 382.117 354.532 362C355.029 359.373 355.083 356.658 354.83 354C352.703 331.644 335.446 320.72 317 311.258C307.532 306.401 292.272 300.535 289.419 289C287.331 280.561 293.198 273.595 300 269.479C313.273 261.448 330.294 261.354 342.999 252.211C355.919 242.914 355.473 228.273 343 219.159C338.955 216.204 334.591 213.97 330 212.001C322.504 208.786 314.928 205.886 307 203.895C295.302 200.957 282.504 199.163 271 203.76C243.997 214.549 239.447 248.274 250.981 272C261.23 293.08 286.629 305.042 292.841 328C293.771 331.436 294.196 335.015 294.147 338.576C294.017 348.009 286.977 355.553 279 359.737C264.411 367.39 246.743 366.083 232 359.485C218.625 353.5 207.413 341.256 199.814 329C194.137 319.844 189.618 310.258 186.344 300C183.297 290.454 180.66 279.081 181.104 269C182.834 229.73 212.21 198.698 235.54 170C238.498 166.362 241.446 162.691 244.338 159C256.732 143.18 279.25 111.441 257.96 93.3403C248.297 85.125 234.741 87 223 87L145 87z" />
</svg>