<svg width="30" height="30" viewBox="0 0 30 30" fill="none" xmlns="http://www.w3.org/2000/svg">
<path d="M19.6875 7.5C19.6875 8.7432 19.1936 9.93549 18.3146 10.8146C17.4355 11.6936 16.2432 12.1875 15 12.1875C13.7568 12.1875 12.5645 11.6936 11.6854 10.8146C10.8064 9.93549 10.3125 8.7432 10.3125 7.5C10.3125 6.2568 10.8064 5.06451 11.6854 4.18544C12.5645 3.30636 13.7568 2.8125 15 2.8125C16.2432 2.8125 17.4355 3.30636 18.3146 4.18544C19.1936 5.06451 19.6875 6.2568 19.6875 7.5ZM5.62625 25.1475C5.66642 22.6879 6.67167 20.3427 8.42522 18.6176C10.1788 16.8924 12.5401 15.9256 15 15.9256C17.4599 15.9256 19.8212 16.8924 21.5748 18.6176C23.3283 20.3427 24.3336 22.6879 24.3738 25.1475C21.433 26.496 18.2352 27.1919 15 27.1875C11.655 27.1875 8.48 26.4575 5.62625 25.1475Z" stroke="black" stroke-width="1.5" stroke-linecap="round" stroke-linejoin="round"/>
</svg>
